<svg width="36" height="36" viewBox="0 0 36 36" fill="none" xmlns="http://www.w3.org/2000/svg">
<path fill-rule="evenodd" clip-rule="evenodd" d="M27.928 18C27.928 17.6022 27.7699 17.2206 27.4886 16.9393C27.2073 16.658 26.8258 16.5 26.428 16.5H7.67798C7.28015 16.5 6.89862 16.658 6.61732 16.9393C6.33601 17.2206 6.17798 17.6022 6.17798 18C6.17798 18.3978 6.33601 18.7794 6.61732 19.0607C6.89862 19.342 7.28015 19.5 7.67798 19.5H26.428C26.8258 19.5 27.2073 19.342 27.4886 19.0607C27.7699 18.7794 27.928 18.3978 27.928 18Z" fill="black"/>
<path fill-rule="evenodd" clip-rule="evenodd" d="M29.679 18C29.6789 17.6022 29.5208 17.2207 29.2395 16.9395L22.4895 10.1895C22.2082 9.90804 21.8266 9.74984 21.4287 9.7497C21.0308 9.74956 20.6492 9.90749 20.3677 10.1887C20.0862 10.47 19.928 10.8516 19.9279 11.2495C19.9278 11.6474 20.0857 12.029 20.367 12.3105L26.058 18L20.3685 23.6895C20.0872 23.971 19.9293 24.3526 19.9294 24.7505C19.9295 25.1484 20.0877 25.53 20.3692 25.8113C20.6507 26.0925 21.0323 26.2504 21.4302 26.2503C21.8281 26.2502 22.2097 26.092 22.491 25.8105L29.241 19.0605C29.5217 18.779 29.6793 18.3976 29.679 18Z" fill="black"/>
</svg>
