<svg width="38" height="38" viewBox="0 0 38 38" fill="none" xmlns="http://www.w3.org/2000/svg">
<path d="M18.749 22.7412L4.77637 36.7139C4.25358 37.2366 3.58821 37.498 2.78027 37.498C1.97233 37.498 1.30696 37.2366 0.784178 36.7139C0.261392 36.1911 0 35.5257 0 34.7178C0 33.9098 0.261392 33.2445 0.784178 32.7217L14.7568 18.749L0.784178 4.77637C0.261392 4.25358 0 3.58821 0 2.78027C0 1.97233 0.261392 1.30696 0.784178 0.784178C1.30696 0.261392 1.97233 0 2.78027 0C3.58821 0 4.25358 0.261392 4.77637 0.784178L18.749 14.7568L32.7217 0.784178C33.2445 0.261392 33.9098 0 34.7178 0C35.5257 0 36.1911 0.261392 36.7139 0.784178C37.2366 1.30696 37.498 1.97233 37.498 2.78027C37.498 3.58821 37.2366 4.25358 36.7139 4.77637L22.7412 18.749L36.7139 32.7217C37.2366 33.2445 37.498 33.9098 37.498 34.7178C37.498 35.5257 37.2366 36.1911 36.7139 36.7139C36.1911 37.2366 35.5257 37.498 34.7178 37.498C33.9098 37.498 33.2445 37.2366 32.7217 36.7139L18.749 22.7412Z" fill="black"/>
</svg>
