<svg width="19" height="27" viewBox="0 0 19 27" fill="none" xmlns="http://www.w3.org/2000/svg">
<path fill-rule="evenodd" clip-rule="evenodd" d="M8.63032 24.2959C9.00996 24.452 9.43498 24.4483 9.81188 24.2854C10.1888 24.1225 10.4867 23.8139 10.6401 23.4273L17.8692 5.21076C18.0226 4.82426 18.0189 4.39155 17.8589 4.00782C17.6989 3.6241 17.3958 3.3208 17.0161 3.16464C16.6365 3.00848 16.2115 3.01226 15.8346 3.17514C15.4577 3.33802 15.1598 3.64666 15.0064 4.03317L7.77723 22.2498C7.62385 22.6363 7.62756 23.069 7.78755 23.4527C7.94753 23.8364 8.25069 24.1397 8.63032 24.2959Z" fill="black"/>
<path d="M9.35139 22.4792L11.3612 21.6103L9.84123 25.4405C9.67803 25.7739 9.52621 25.8932 9.13676 25.9864C8.75991 26.1494 8.33494 26.1532 7.9553 25.9971C7.57578 25.8414 7.27252 25.5386 7.11216 25.1553L3.27326 15.9478C3.11311 15.564 3.10925 15.1312 3.26253 14.7446C3.41581 14.3579 3.71367 14.0491 4.0906 13.8861C4.46752 13.723 4.89262 13.7191 5.27239 13.8752C5.65215 14.0312 5.95548 14.3345 6.11563 14.7182L9.35139 22.4792Z" fill="black"/>
</svg>
