<svg width="17" height="24" viewBox="0 0 17 24" fill="none" xmlns="http://www.w3.org/2000/svg">
<path fill-rule="evenodd" clip-rule="evenodd" d="M8.25031 2.25C8.64813 2.25 9.02966 2.40803 9.31097 2.68934C9.59227 2.97064 9.75031 3.35218 9.75031 3.75V22.5C9.75031 22.8978 9.59227 23.2794 9.31097 23.5607C9.02966 23.842 8.64813 24 8.25031 24C7.85248 24 7.47095 23.842 7.18965 23.5607C6.90834 23.2794 6.75031 22.8978 6.75031 22.5V3.75C6.75031 3.35218 6.90834 2.97064 7.18965 2.68934C7.47095 2.40803 7.85248 2.25 8.25031 2.25Z" fill="black"/>
<path fill-rule="evenodd" clip-rule="evenodd" d="M8.2503 4.655e-07C8.6481 8.54216e-05 9.02956 0.158176 9.3108 0.4395L16.0608 7.1895C16.3423 7.47076 16.5005 7.85232 16.5006 8.25022C16.5007 8.64813 16.3428 9.02979 16.0616 9.31125C15.7803 9.59271 15.3987 9.75092 15.0008 9.75106C14.6029 9.7512 14.2213 9.59326 13.9398 9.312L8.2503 3.621L2.5608 9.3105C2.27934 9.59176 1.89768 9.7497 1.49977 9.74956C1.10187 9.74941 0.720316 9.59121 0.439054 9.30975C0.157792 9.02829 -0.000140558 8.64663 9.38665e-08 8.24872C0.000140746 7.85082 0.158343 7.46926 0.439804 7.188L7.1898 0.438C7.47129 0.157226 7.85273 -0.00031253 8.2503 4.655e-07Z" fill="black"/>
</svg>
