<svg width="17" height="24" viewBox="0 0 17 24" fill="none" xmlns="http://www.w3.org/2000/svg">
<path fill-rule="evenodd" clip-rule="evenodd" d="M8.25031 21.75C8.64813 21.75 9.02966 21.592 9.31097 21.3107C9.59227 21.0294 9.75031 20.6478 9.75031 20.25V1.5C9.75031 1.10217 9.59227 0.720646 9.31097 0.439342C9.02966 0.158037 8.64813 0 8.25031 0C7.85248 0 7.47095 0.158037 7.18965 0.439342C6.90834 0.720646 6.75031 1.10217 6.75031 1.5V20.25C6.75031 20.6478 6.90834 21.0294 7.18965 21.3107C7.47095 21.592 7.85248 21.75 8.25031 21.75Z" fill="black"/>
<path fill-rule="evenodd" clip-rule="evenodd" d="M8.2503 23.501C8.6481 23.501 9.02956 23.3429 9.3108 23.0615L16.0608 16.3115C16.3423 16.0303 16.5005 15.6487 16.5006 15.2508C16.5007 14.8529 16.3428 14.4712 16.0616 14.1898C15.7803 13.9083 15.3987 13.7501 15.0008 13.75C14.6029 13.7498 14.2213 13.9078 13.9398 14.189L8.2503 19.88L2.5608 14.1905C2.27934 13.9093 1.89768 13.7513 1.49977 13.7515C1.10187 13.7516 0.720316 13.9098 0.439054 14.1913C0.157792 14.4727 -0.000140558 14.8544 9.38665e-08 15.2523C0.000140746 15.6502 0.158343 16.0318 0.439804 16.313L7.1898 23.063C7.47129 23.3438 7.85273 23.5014 8.2503 23.501Z" fill="black"/>
</svg>
